<?xml version="1.0" encoding="UTF-8" standalone="no"?>
<!DOCTYPE svg PUBLIC "-//W3C//DTD SVG 1.1//EN" "http://www.w3.org/Graphics/SVG/1.1/DTD/svg11.dtd">
<svg width="100%" height="100%" viewBox="0 0 1000 1000" version="1.1" xmlns="http://www.w3.org/2000/svg" xmlns:xlink="http://www.w3.org/1999/xlink" xml:space="preserve" xmlns:serif="http://www.serif.com/" style="fill-rule:evenodd;clip-rule:evenodd;stroke-linejoin:round;stroke-miterlimit:1.41421;">
    <g transform="matrix(4.62625,0,0,4.62625,-1121.44,-1634.87)">
        <path d="M283.527,559.389L283.527,363.549C283.527,361.629 284.487,360.669 286.407,360.669L342.567,360.669C359.655,360.669 373.143,365.565 383.031,375.357C392.919,385.149 397.863,398.493 397.863,415.389L397.863,507.549C397.863,524.445 392.919,537.789 383.031,547.581C373.143,557.373 359.655,562.269 342.567,562.269L286.407,562.269C284.487,562.269 283.527,561.309 283.527,559.389ZM305.127,544.413L342.855,544.413C353.415,544.221 361.767,540.717 367.911,533.901C374.055,527.085 377.223,517.725 377.415,505.821L377.415,417.117C377.415,405.213 374.343,395.805 368.199,388.893C362.055,381.981 353.607,378.525 342.855,378.525L305.127,378.525C304.359,378.525 303.975,378.909 303.975,379.677L303.975,543.261C303.975,544.029 304.359,544.413 305.127,544.413Z" style="fill:rgb(204,204,204);fill-rule:nonzero;"/>
    </g>
    <g transform="matrix(4.62625,0,0,4.62625,-1030.85,-1634.87)">
        <path d="M283.527,559.389L283.527,363.549C283.527,361.629 284.487,360.669 286.407,360.669L342.567,360.669C359.655,360.669 373.143,365.565 383.031,375.357C392.919,385.149 397.863,398.493 397.863,415.389L397.863,507.549C397.863,524.445 392.919,537.789 383.031,547.581C373.143,557.373 359.655,562.269 342.567,562.269L286.407,562.269C284.487,562.269 283.527,561.309 283.527,559.389ZM305.127,544.413L342.855,544.413C353.415,544.221 361.767,540.717 367.911,533.901C374.055,527.085 377.223,517.725 377.415,505.821L377.415,417.117C377.415,405.213 374.343,395.805 368.199,388.893C362.055,381.981 353.607,378.525 342.855,378.525L305.127,378.525C304.359,378.525 303.975,378.909 303.975,379.677L303.975,543.261C303.975,544.029 304.359,544.413 305.127,544.413Z" style="fill:url(#_Linear1);fill-rule:nonzero;stroke:rgb(255,71,1);stroke-width:0.43px;"/>
    </g>
    <defs>
        <linearGradient id="_Linear1" x1="0" y1="0" x2="1" y2="0" gradientUnits="userSpaceOnUse" gradientTransform="matrix(102.379,169.748,-169.748,102.379,300.919,389.383)"><stop offset="0" style="stop-color:rgb(255,96,36);stop-opacity:1"/><stop offset="0.5" style="stop-color:rgb(255,71,1);stop-opacity:1"/><stop offset="1" style="stop-color:rgb(219,61,1);stop-opacity:1"/></linearGradient>
    </defs>
</svg>
